<svg xmlns="http://www.w3.org/2000/svg" width="58" height="58" viewBox="0 0 58 58">
  <metadata><?xpacket begin="﻿" id="W5M0MpCehiHzreSzNTczkc9d"?>
<x:xmpmeta xmlns:x="adobe:ns:meta/" x:xmptk="Adobe XMP Core 5.6-c138 79.159824, 2016/09/14-01:09:01        ">
   <rdf:RDF xmlns:rdf="http://www.w3.org/1999/02/22-rdf-syntax-ns#">
      <rdf:Description rdf:about=""/>
   </rdf:RDF>
</x:xmpmeta>
                                                                                                    
                                                                                                    
                                                                                                    
                                                                                                    
                                                                                                    
                                                                                                    
                                                                                                    
                                                                                                    
                                                                                                    
                                                                                                    
                                                                                                    
                                                                                                    
                                                                                                    
                                                                                                    
                                                                                                    
                                                                                                    
                                                                                                    
                                                                                                    
                                                                                                    
                                                                                                    
                           
<?xpacket end="w"?></metadata>
<defs>
    <style>
      .cls-1 {
        fill: #add136;
        fill-rule: evenodd;
      }
    </style>
  </defs>
  <path class="cls-1" d="M711.033,771.4a0.965,0.965,0,0,1-.966-0.965v-12.98l-10.781,10.78a25.735,25.735,0,0,1,2.3,2.9l0.018-.018c0.149,0.215.281,0.445,0.423,0.665l0.105,0.166a26.009,26.009,0,1,1-7.311-7.605l-1.381,1.381a24.179,24.179,0,0,0-37.508,20.167c0,0.347.038,0.686,0.052,1.032L668.011,774.9a0.966,0.966,0,0,1,1.367,0l10.253,10.252,29.221-29.22H695.567a0.966,0.966,0,1,1,0-1.932h15.466a0.966,0.966,0,0,1,.967.966v15.467A0.966,0.966,0,0,1,711.033,771.4Z" transform="translate(-654 -754)"/>
</svg>
